<svg width="185" height="68" viewBox="0 0 185 68" fill="none" xmlns="http://www.w3.org/2000/svg">
<path d="M11.7883 29.6587C11.5723 26.4547 11.5723 25.1227 11.5723 22.8907V1.29069H11.9323C13.3363 1.29069 16.2883 1.47069 19.3843 2.33469L20.7163 0.858691H0.37625L1.67225 2.33469C4.80425 1.47069 7.75625 1.29069 9.12425 1.29069H9.52025V22.8907C9.52025 25.1227 9.48425 26.4547 9.30425 29.6587H11.7883ZM34.4401 22.7107C32.8561 18.4987 30.4081 16.8427 27.5641 16.2667C32.6401 15.8707 36.6721 13.9987 36.6721 8.59869C36.6721 2.40669 31.4161 0.858691 25.2961 0.858691H19.9681C20.1841 4.06269 20.1841 5.39469 20.1841 7.59069V22.8907C20.1841 25.1227 20.1841 26.4547 19.9681 29.6587H22.4521C22.2721 26.4547 22.2361 25.1227 22.2361 22.8907V16.3387H23.8201C27.7081 16.3387 30.4081 17.4547 32.4241 22.9987C34.1521 27.7507 36.0601 29.6587 41.4241 29.6587V29.2267C37.9681 29.2267 36.3481 27.8227 34.4401 22.7107ZM22.2361 1.29069H25.2961C29.8681 1.29069 34.4761 2.73069 34.4761 8.59869C34.4761 14.4307 29.8681 15.8707 25.2961 15.8707H22.2361V1.29069ZM51.4183 0.858691H48.8983C49.1143 1.47069 49.1503 1.83069 49.0063 2.44269L42.1663 26.2027C41.7703 27.5347 41.6623 28.1827 40.9423 29.6587H41.8063C41.9143 28.1827 42.2383 27.5347 42.6343 26.1667L44.6863 19.0387H54.4423L56.4583 26.0587C56.8543 27.5347 57.0703 28.1467 57.1783 29.6587H59.9863C59.3023 28.2547 59.0143 27.5707 58.6183 26.0587L51.4183 0.858691ZM49.5823 2.04669L54.3343 18.6067H44.7943L49.5823 2.04669ZM72.0711 30.3787C79.3431 30.3787 83.3391 25.2667 84.8871 17.8147H84.4551C82.9431 24.7987 79.1271 29.6947 72.4671 29.6947C64.4031 29.6947 60.6951 22.7107 60.6951 14.7907C60.6951 6.97869 65.2671 0.57069 72.1071 0.57069C76.9311 0.57069 79.6671 4.13469 80.9271 8.27469L83.3031 7.62669C80.9271 2.83869 77.3271 0.13869 72.1071 0.13869C64.3311 0.13869 58.3911 6.40269 58.3911 14.8987C58.3911 23.4307 63.2511 30.3787 72.0711 30.3787ZM88.3082 29.6587C88.1282 26.4547 88.0922 25.1227 88.0922 22.8907V7.59069C88.0922 5.39469 88.1282 4.06269 88.3082 0.858691H85.8242C86.0402 4.06269 86.0402 5.39469 86.0402 7.59069V22.8907C86.0402 25.1227 86.0402 26.4547 85.8242 29.6587H88.3082ZM110.495 7.59069C110.495 5.39469 110.495 4.06269 110.711 0.858691H109.847C110.027 4.06269 110.063 5.39469 110.063 7.59069V28.2907L92.1355 0.858691H89.9755C90.1915 4.06269 90.1915 5.39469 90.1915 7.59069V22.8907C90.1915 25.1227 90.1915 26.4547 89.9755 29.6587H90.8395C90.6595 26.4547 90.6235 25.1227 90.6235 22.8907V2.22669L108.551 29.6587H110.711C110.495 26.4547 110.495 25.1227 110.495 22.8907V7.59069ZM125.334 30.3787C131.67 30.3787 135.558 26.3107 136.782 19.3627V21.7387C136.782 24.0787 136.746 26.1307 136.386 29.6587H137.682C137.322 26.1307 137.322 24.0787 137.322 21.7387V15.5107H140.382V15.0787H125.946L127.242 16.5547C130.374 15.6547 134.298 15.5107 135.666 15.5107H136.782C136.422 24.2947 132.498 29.5507 125.766 29.5507C118.314 29.5507 114.282 22.7107 114.282 14.7907C114.282 6.97869 118.854 0.57069 125.694 0.57069C130.59 0.57069 133.29 4.13469 134.55 8.16669L136.926 7.55469C134.55 2.83869 130.986 0.13869 125.694 0.13869C117.918 0.13869 111.978 6.40269 111.978 14.8987C111.978 23.4307 117.126 30.3787 125.334 30.3787ZM32.9203 49.2587C32.9203 40.7267 26.2603 34.1387 17.3683 34.1387C8.44025 34.1387 1.81625 40.7267 1.81625 49.2587C1.81625 57.8267 8.44025 64.3787 17.3683 64.3787C18.1243 64.3787 18.8443 64.3427 19.5643 64.2347C19.6723 64.4867 19.8523 64.7027 19.9962 64.9187C21.3283 66.8267 23.4523 67.3667 26.1883 67.3667V66.9347C23.5963 66.9347 22.3363 65.8187 21.1843 64.1627L21.0763 63.9827C28.0603 62.4347 32.9203 56.6027 32.9203 49.2587ZM20.7163 63.5147C19.7083 62.1107 18.6642 60.9947 16.7563 60.9947C15.1003 60.9947 13.9843 62.0387 13.2283 63.2627C7.57625 61.3187 4.12025 55.4507 4.12025 49.2587C4.12025 41.6987 9.34025 34.5707 17.3683 34.5707C25.3603 34.5707 30.6163 41.6987 30.6163 49.2587C30.6163 55.7387 26.8003 61.8227 20.7163 63.5147ZM17.3683 63.9467C16.0363 63.9467 14.8123 63.7667 13.6603 63.4067C14.2003 62.3987 15.3163 61.4267 16.5763 61.4267C17.9443 61.4267 18.5563 62.5787 19.2763 63.8027C18.6642 63.9107 18.0163 63.9467 17.3683 63.9467ZM44.4923 64.3787C50.6483 64.3787 53.8883 60.8507 53.8883 51.4187V41.5907C53.8883 39.3947 53.8883 38.0627 54.1043 34.8587H53.2043C53.4203 38.0627 53.4203 39.3947 53.4203 41.5907V51.4187C53.4203 60.4547 50.4323 63.6947 44.7803 63.6947C39.0923 63.6947 36.5363 60.0947 36.5363 51.4187V41.5907C36.5363 39.3947 36.5723 38.0627 36.7523 34.8587H34.2683C34.4843 38.0627 34.4843 39.3947 34.4843 41.5907V51.4187C34.4843 61.6067 38.1923 64.3787 44.4923 64.3787ZM71.1044 63.6587L71.9324 62.1827C68.4044 63.0467 65.7404 63.1907 62.2844 63.1907H57.7484V48.5387H60.3044C62.2124 48.5387 64.1564 48.5387 67.5044 48.8987V47.7467C64.1564 48.1067 62.2124 48.1067 60.3044 48.1067H57.7484V35.2907H61.1324C62.5364 35.2907 66.4244 35.4707 69.5564 36.3347L70.8524 34.8587H55.4084C55.6604 38.0627 55.6964 39.3947 55.6964 41.5907V56.8907C55.6964 59.1227 55.6604 60.4547 55.4084 63.6587H71.1044ZM88.1932 63.6587L89.0212 62.1827C85.4932 63.0467 82.8292 63.1907 79.3732 63.1907H74.8372V48.5387H77.3932C79.3012 48.5387 81.2452 48.5387 84.5932 48.8987V47.7467C81.2452 48.1067 79.3012 48.1067 77.3932 48.1067H74.8372V35.2907H78.2212C79.6252 35.2907 83.5132 35.4707 86.6452 36.3347L87.9412 34.8587H72.4972C72.7492 38.0627 72.7852 39.3947 72.7852 41.5907V56.8907C72.7852 59.1227 72.7492 60.4547 72.4972 63.6587H88.1932ZM104.058 56.7107C102.474 52.4987 100.026 50.8427 97.1819 50.2667C102.258 49.8707 106.29 47.9987 106.29 42.5987C106.29 36.4067 101.034 34.8587 94.9139 34.8587H89.5859C89.8019 38.0627 89.8019 39.3947 89.8019 41.5907V56.8907C89.8019 59.1227 89.8019 60.4547 89.5859 63.6587H92.0699C91.8899 60.4547 91.8539 59.1227 91.8539 56.8907V50.3387H93.4379C97.3259 50.3387 100.026 51.4547 102.042 56.9987C103.77 61.7507 105.678 63.6587 111.042 63.6587V63.2267C107.586 63.2267 105.966 61.8227 104.058 56.7107ZM91.8539 35.2907H94.9139C99.4859 35.2907 104.094 36.7307 104.094 42.5987C104.094 48.4307 99.4859 49.8707 94.9139 49.8707H91.8539V35.2907ZM131.73 41.5907C131.73 39.3947 131.73 38.0627 131.946 34.8587H131.082C131.262 38.0627 131.298 39.3947 131.298 41.5907V62.2907L113.37 34.8587H111.21C111.426 38.0627 111.426 39.3947 111.426 41.5907V56.8907C111.426 59.1227 111.426 60.4547 111.21 63.6587H112.074C111.894 60.4547 111.858 59.1227 111.858 56.8907V36.2267L129.786 63.6587H131.946C131.73 60.4547 131.73 59.1227 131.73 56.8907V41.5907ZM149.303 63.6587L150.131 62.1827C146.603 63.0467 143.939 63.1907 140.483 63.1907H135.947V48.5387H138.503C140.411 48.5387 142.355 48.5387 145.703 48.8987V47.7467C142.355 48.1067 140.411 48.1067 138.503 48.1067H135.947V35.2907H139.331C140.735 35.2907 144.623 35.4707 147.755 36.3347L149.051 34.8587H133.607C133.859 38.0627 133.895 39.3947 133.895 41.5907V56.8907C133.895 59.1227 133.859 60.4547 133.607 63.6587H149.303ZM158.728 64.3787C162.868 64.3787 166.36 62.1107 166.36 57.4307C166.36 53.2547 163.264 51.0947 157.576 46.5587C153.508 43.3907 151.096 42.0227 151.096 38.8907C151.096 36.2987 153.04 34.5707 156.28 34.5707C160.852 34.5707 162.76 38.0267 163.192 41.2667L165.28 40.6187C163.228 36.4427 160.384 34.1387 156.352 34.1387C152.428 34.1387 149.8 36.1187 149.8 39.5747C149.8 42.9587 151.852 44.3987 156.568 48.1427C161.716 52.2467 165.064 54.5147 165.064 57.8987C165.064 62.0387 162.292 63.9467 158.8 63.9467C154.084 63.9467 150.412 59.9507 150.016 54.1187L147.928 54.9107C149.944 62.0387 154.012 64.3787 158.728 64.3787ZM177.118 64.3787C181.258 64.3787 184.75 62.1107 184.75 57.4307C184.75 53.2547 181.654 51.0947 175.966 46.5587C171.898 43.3907 169.486 42.0227 169.486 38.8907C169.486 36.2987 171.43 34.5707 174.67 34.5707C179.242 34.5707 181.15 38.0267 181.582 41.2667L183.67 40.6187C181.618 36.4427 178.774 34.1387 174.742 34.1387C170.818 34.1387 168.19 36.1187 168.19 39.5747C168.19 42.9587 170.242 44.3987 174.958 48.1427C180.106 52.2467 183.454 54.5147 183.454 57.8987C183.454 62.0387 180.682 63.9467 177.19 63.9467C172.474 63.9467 168.802 59.9507 168.406 54.1187L166.318 54.9107C168.334 62.0387 172.402 64.3787 177.118 64.3787Z" fill="white"/>
</svg>
